# xmcd
#
# Track frame offsets:
#	150
#	15678
#	30703
#	47625
#	64433
#	79354
#	95360
#	112561
#	127847
#	141037
#	154429
#	167788
#
# Disc length: 2486 seconds
#
# Revision: 4294049783
# Processed by: cddbd v1.5.2PL0 Copyright (c) Steve Scherf et al.
# Submitted via: EZCDAudioConverter 8.0.1.1
#
DISCID=9809b40c
DTITLE=RaeLynn - WildHorse
DYEAR=2017
DGENRE=Country
TTITLE0=Raelynn - Your Heart
TTITLE1=Raelynn - Wildhorse
TTITLE2=Raelynn - Love Triangle
TTITLE3=Raelynn - Lonely Call
TTITLE4=Raelynn - Insecure
TTITLE5=Raelynn - The Apple
TTITLE6=Raelynn Feat. Leeland Mooring - Young
TTITLE7=Raelynn - Diamonds
TTITLE8=Raelynn - Trigger
TTITLE9=Raelynn - Graveyard
TTITLE10=Raelynn Feat. Dan and Shay - Say
TTITLE11=Raelynn - Praying For Rain
EXTD=
EXTT0=
EXTT1=
EXTT2=
EXTT3=
EXTT4=
EXTT5=
EXTT6=
EXTT7=
EXTT8=
EXTT9=
EXTT10=
EXTT11=
PLAYORDER=
